HIERARCHY
ROOT Hips
{
	OFFSET 0.00000 0.00000 0.00000
	CHANNELS 6 Xposition Yposition Zposition Zrotation Yrotation Xrotation 
	JOINT LHipJoint
	{
		OFFSET 0 0 0
		CHANNELS 3 Zrotation Yrotation Xrotation
		JOINT LeftHip
		{
			OFFSET 1.27966 -1.91611 0.81506
			CHANNELS 3 Zrotation Yrotation Xrotation
			JOINT LeftKnee
			{
				OFFSET 2.49511 -6.85528 0.00000
				CHANNELS 3 Zrotation Yrotation Xrotation
				JOINT LeftAnkle
				{
					OFFSET 2.67286 -7.34045 0.00000
					CHANNELS 3 Zrotation Yrotation Xrotation
					JOINT LeftToe
					{
						OFFSET 0.22740 -0.62477 2.32102
						CHANNELS 3 Zrotation Yrotation Xrotation
						End Site
						{
							OFFSET 0.00000 -0.00000 1.20480
						}
					}
				}
			}
		}
	}
	JOINT RHipJoint
	{
		OFFSET 0 0 0
		CHANNELS 3 Zrotation Yrotation Xrotation
		JOINT RightHip
		{
			OFFSET -1.09666 -1.91611 0.81505
			CHANNELS 3 Zrotation Yrotation Xrotation
			JOINT RightKnee
			{
				OFFSET -2.51373 -6.90642 0.00000
				CHANNELS 3 Zrotation Yrotation Xrotation
				JOINT RightAnkle
				{
					OFFSET -2.70173 -7.42295 0.00000
					CHANNELS 3 Zrotation Yrotation Xrotation
					JOINT RightToe
					{
						OFFSET -0.22214 -0.61032 2.18267
						CHANNELS 3 Zrotation Yrotation Xrotation
						End Site
						{
							OFFSET -0.00000 -0.00000 1.13683
						}
					}
				}
			}
		}
	}
	JOINT lowerback
	{
		OFFSET 0 0 0
		CHANNELS 3 Zrotation Yrotation Xrotation
		JOINT Chest
		{
			OFFSET -0.00990 2.16804 -0.08389
			CHANNELS 3 Zrotation Yrotation Xrotation
			JOINT Chest2
			{
				OFFSET 0.06407 2.15456 0.07285
				CHANNELS 3 Zrotation Yrotation Xrotation
				JOINT lowerneck
				{
					OFFSET 0 0 0
					CHANNELS 3 Zrotation Yrotation Xrotation
					JOINT Neck
					{
						OFFSET -0.16931 1.61602 0.24462
						CHANNELS 3 Zrotation Yrotation Xrotation
						JOINT Head
						{
							OFFSET 0.21556 1.63376 -0.33896
							CHANNELS 3 Zrotation Yrotation Xrotation
							End Site
							{
								OFFSET 0.08444 1.69244 -0.14900
							}
						}
					}
				}
				JOINT LeftCollar
				{
					OFFSET 0 0 0
					CHANNELS 3 Zrotation Yrotation Xrotation
					JOINT LeftShoulder
					{
						OFFSET 2.89000 1.40150 -0.54392
CHANNELS 3 Zrotation Xrotation Yrotation
						JOINT LeftElbow
						{
OFFSET 0 -5.107550 0.000000
CHANNELS 3 Zrotation Xrotation Yrotation
							JOINT LeftWrist
							{
OFFSET 0 -3.362530 0.000000
CHANNELS 3 Zrotation Xrotation Yrotation
								JOINT lhand
								{
									OFFSET 0 0 0
CHANNELS 3 Zrotation Xrotation Yrotation
									JOINT LFingers
									{
OFFSET 0 -0.619090 0.000000
CHANNELS 3 Zrotation Xrotation Yrotation
										End Site
										{
OFFSET 0 -0.499120 0.000000
										}
									}
								}
								JOINT LThumb
								{
OFFSET 0 0.000000 0.000000
CHANNELS 3 Zrotation Xrotation Yrotation
									End Site
									{
OFFSET 0 -0.506750 0.506750
									}
								}
							}
						}
					}
				}
				JOINT RightCollar
				{
					OFFSET 0 0 0
					CHANNELS 3 Zrotation Yrotation Xrotation
					JOINT RightShoulder
					{
						OFFSET -2.65771 1.70968 -0.54312
CHANNELS 3 Zrotation Xrotation Yrotation
						JOINT RightElbow
						{
OFFSET 0 -5.273870 0.000000
CHANNELS 3 Zrotation Xrotation Yrotation
							JOINT RightWrist
							{
OFFSET 0 -3.401440 0.000000
CHANNELS 3 Zrotation Xrotation Yrotation
								JOINT rhand
								{
									OFFSET 0 0 0
CHANNELS 3 Zrotation Xrotation Yrotation
									JOINT RFingers
									{
OFFSET 0 -0.742820 0.000000
CHANNELS 3 Zrotation Xrotation Yrotation
										End Site
										{
OFFSET 0 -0.598880 0.000000
										}
									}
								}
								JOINT RThumb
								{
OFFSET 0 0.000000 0.000000
CHANNELS 3 Zrotation Xrotation Yrotation
									End Site
									{
OFFSET 0 -0.608030 0.608030
									}
								}
							}
						}
					}
				}
			}
		}
	}
}
MOTION
Frames: 12
Frame Time: 0.008333333333333333
1.148500 18.165700 1.448900 -2.409300 1.756500 -3.412500 0.000000 0.000000 0.000000 -17.429400 3.339800 -1.700100 1.427900 7.556000 21.373300 0.416500 -7.337400 -11.832500 0.228100 -3.074000 -8.484700 0.000000 0.000000 0.000000 19.709400 2.665900 0.028400 -1.529500 -7.808400 22.133800 -0.430100 -4.557500 -14.904600 -0.619200 5.036000 -14.011200 -0.023600 0.630100 6.469700 3.185200 1.018300 -2.056800 3.222500 0.567700 -5.838500 -16.714800 -7.807700 -19.493000 13.680600 -9.521700 22.798500 6.398200 -4.141800 12.287800 0.000000 0.000000 0.000000 16.346100 -28.908900 -26.550700 76.272300 -59.275800 48.140300 59.010500 73.339900 -24.886200 0.000000 0.000000 0.000000 -7.125000 0.000000 0.000000 45.408800 66.582900 -25.785700 0.000000 0.000000 0.000000 -40.641500 -50.218600 34.715600 -68.307500 -58.145100 -41.330800 -53.971800 10.200600 -25.782200 0.000000 0.000000 0.000000 7.125000 0.000000 -0.000000 -13.773100 -8.418500 -16.079300
1.174185 18.187867 1.463085 -2.065220 4.116566 -2.644251 0.000000 0.000000 0.000000 -17.879727 3.340946 -2.730601 1.386848 7.451045 21.058819 0.311716 -8.744689 -10.898402 0.354526 -3.824649 -10.583988 0.000000 0.000000 0.000000 18.995549 1.785779 -0.536341 -1.468299 -7.657532 21.678663 -0.411468 -4.816557 -14.848818 -0.589122 4.913987 -13.663375 -0.322288 0.156781 6.340440 2.980015 0.364878 -2.805179 3.259343 0.264732 -6.517078 -15.491991 -7.793689 -18.410261 13.008560 -9.901793 22.994166 5.868479 -4.320589 12.099272 0.000000 0.000000 0.000000 15.368610 -28.459645 -26.911704 77.250776 -59.376806 48.982018 63.215022 78.432440 -25.255289 0.000000 0.000000 0.000000 -7.125000 0.000000 0.000000 56.969704 68.080379 -35.736341 0.000000 0.000000 0.000000 -66.263827 -60.303217 2.328365 -57.448818 -55.590672 -32.227144 -57.051497 4.706396 -25.102921 0.000000 0.000000 0.000000 7.125000 0.000000 0.000000 -15.622393 -9.448927 -18.623392
1.171497 18.197735 1.558900 -2.203698 6.394388 -2.592571 0.000000 0.000000 0.000000 -17.642401 2.149793 -1.904853 1.298474 7.219254 20.366594 0.183667 -10.211375 -9.844042 0.194269 -2.838383 -7.829212 0.000000 0.000000 0.000000 19.267655 0.373677 -0.126091 -1.381623 -7.437607 21.018422 -0.403887 -6.120776 -15.802446 -0.582457 4.886098 -13.583980 -1.451628 -0.271411 6.350446 2.816681 -0.320301 -2.827776 3.808412 -0.028680 -6.502081 -15.175043 -7.988326 -18.491976 13.344057 -10.403818 23.276203 5.865676 -4.475181 12.316688 0.000000 0.000000 0.000000 15.669594 -26.094254 -26.027030 79.058910 -59.542798 50.539280 61.175251 75.829322 -25.927664 0.000000 0.000000 0.000000 -7.125000 0.000000 0.000000 52.549601 68.301662 -32.646092 0.000000 0.000000 0.000000 -69.115452 -49.131103 -17.540742 -56.709673 -55.367230 -31.618203 -57.441167 7.296130 -21.479679 0.000000 0.000000 0.000000 7.125000 0.000000 0.000000 -16.896345 -4.835495 -19.079794
1.096992 18.201850 1.580798 -2.796046 6.411258 -2.395114 0.000000 0.000000 0.000000 -16.571315 1.533336 -2.324360 1.377551 7.427102 20.987007 0.118800 -11.169067 -9.497435 0.153351 -2.523305 -6.954215 0.000000 0.000000 0.000000 20.306206 0.166981 -0.203859 -1.319355 -7.274812 20.532186 -0.356155 -6.703669 -15.692685 -0.632214 5.086709 -14.156148 -2.429598 -0.602897 6.294000 2.955501 -0.848087 -2.527324 4.564003 -0.258211 -6.098462 -16.077320 -7.389534 -18.701963 13.589427 -9.292286 23.436019 6.333994 -4.027495 12.291277 0.000000 0.000000 0.000000 16.761126 -22.944394 -22.963944 80.160599 -59.631004 51.489392 54.701070 67.789510 -25.182659 0.000000 0.000000 0.000000 -7.125000 0.000000 0.000000 36.396792 65.586687 -19.218228 0.000000 0.000000 0.000000 -45.577200 -32.875145 -11.670605 -65.236578 -57.548736 -38.730952 -57.377308 8.601151 -18.827780 0.000000 0.000000 0.000000 7.125000 0.000000 0.000000 -17.613825 -1.032329 -18.835095
1.028903 18.198198 1.568066 -2.517878 2.909435 -2.374617 0.000000 0.000000 0.000000 -16.822058 2.457469 -1.817964 1.331030 7.305725 20.624376 0.320151 -8.266076 -10.851319 0.193766 -2.832776 -7.813741 0.000000 0.000000 0.000000 20.210394 1.716643 -0.581894 -1.434139 -7.571714 21.420576 -0.426282 -4.926287 -15.131466 -0.532132 4.674529 -12.982520 -3.157364 0.016344 6.282680 3.212335 -0.068357 -2.489486 5.163514 0.162152 -6.131977 -16.225314 -6.541834 -18.486245 12.364335 -7.766783 24.322969 6.181451 -3.519143 12.258937 0.000000 0.000000 0.000000 16.382231 -20.612865 -22.417444 79.452304 -59.575426 50.878450 60.894066 75.868092 -26.588808 0.000000 0.000000 0.000000 -7.125000 0.000000 0.000000 52.948909 68.923132 -33.625743 0.000000 0.000000 0.000000 -24.811763 -21.602744 12.329421 -77.031723 -59.354806 -48.793469 -59.930149 7.351590 -21.356039 0.000000 0.000000 0.000000 7.125000 0.000000 0.000000 -18.266821 -6.330943 -21.225053
1.057509 18.202050 1.504446 -2.495466 1.836937 -2.413064 0.000000 0.000000 0.000000 -17.271769 2.630493 -2.118391 1.366449 7.398374 20.901055 0.437753 -6.202951 -11.903209 0.399782 -4.059359 -11.243777 0.000000 0.000000 0.000000 19.812562 1.488924 -1.113298 -1.463402 -7.645212 21.641602 -0.428836 -3.491256 -14.147492 -0.640154 5.118685 -14.247363 -2.518130 0.597775 6.575141 3.543797 0.774545 -1.944906 5.048224 0.544642 -5.814177 -16.012959 -6.805361 -20.192146 11.822784 -7.791477 24.630752 5.921663 -3.523033 12.695681 0.000000 0.000000 0.000000 14.194324 -22.738574 -25.595933 78.207572 -59.467979 49.805670 60.526560 74.825104 -25.235819 0.000000 0.000000 0.000000 -7.125000 0.000000 0.000000 49.645247 67.403915 -29.543315 0.000000 0.000000 0.000000 -18.682116 -24.156501 19.661801 -81.079158 -59.697096 -52.282150 -57.558788 12.042582 -22.490872 0.000000 0.000000 0.000000 7.125000 0.000000 0.000000 -16.662763 -6.354454 -19.213232
1.071804 18.211103 1.462800 -2.453091 3.551427 -2.007391 0.000000 0.000000 0.000000 -17.348721 2.099111 -2.722954 1.329391 7.301277 20.611231 0.369001 -7.167447 -11.190401 0.410690 -4.113649 -11.396658 0.000000 0.000000 0.000000 19.840486 1.623524 -1.348166 -1.432819 -7.568547 21.410940 -0.391113 -4.966895 -14.689764 -0.581924 4.884697 -13.579876 -1.933419 -0.019513 6.808860 3.442573 -0.000509 -2.269079 4.704927 0.150194 -6.203359 -15.674479 -6.513143 -20.549638 11.859607 -7.399438 24.232312 5.931318 -3.294791 12.525286 0.000000 0.000000 0.000000 14.084483 -21.859095 -28.965308 77.198603 -59.371629 48.937101 57.930520 71.347311 -24.324503 0.000000 0.000000 0.000000 -7.125000 0.000000 0.000000 42.232851 65.604758 -22.785399 0.000000 0.000000 0.000000 -20.836379 -25.097693 16.737138 -80.562470 -59.660712 -51.836147 -58.528721 9.376726 -21.630484 0.000000 0.000000 0.000000 7.125000 0.000000 0.000000 -17.438296 -5.751308 -20.005581
1.083883 18.193096 1.480271 -2.205083 2.143511 -2.590340 0.000000 0.000000 0.000000 -17.668511 2.464074 -1.926899 1.346195 7.345680 20.743589 0.423616 -6.463972 -11.761235 0.364067 -3.875773 -10.727436 0.000000 0.000000 0.000000 19.573995 2.069798 -0.749799 -1.470959 -7.664215 21.698645 -0.414355 -4.377109 -14.561676 -0.680983 5.276026 -14.697722 -1.555673 0.062729 6.588065 3.345087 0.133536 -2.031904 4.363512 0.189366 -5.836284 -15.290707 -6.027863 -20.937174 11.044895 -6.549245 24.601659 5.703997 -2.975308 12.554235 0.000000 0.000000 0.000000 21.034341 -21.217717 -43.775089 72.015515 -58.741499 44.490831 53.279405 67.456409 -22.295064 0.000000 0.000000 0.000000 -7.125000 0.000000 0.000000 31.485972 61.614683 -13.480919 0.000000 0.000000 0.000000 -21.221933 -24.243930 18.350601 -80.098675 -59.626278 -51.435949 -57.095316 11.169781 -21.085722 0.000000 0.000000 0.000000 7.125000 0.000000 0.000000 -16.822202 -4.069958 -18.777448
1.049555 18.184735 1.459590 -2.480902 3.805986 -3.225203 0.000000 0.000000 0.000000 -17.250344 1.229350 -1.404798 1.410245 7.511029 21.238488 0.369782 -7.370642 -11.247732 0.179780 -2.731032 -7.530907 0.000000 0.000000 0.000000 19.912990 0.667421 -0.371932 -1.456848 -7.628920 21.592392 -0.408245 -4.829809 -14.815915 -0.683995 5.287741 -14.731076 -1.919259 -0.128459 5.196303 3.549867 -0.157273 -1.223759 4.790475 0.017949 -4.177786 -14.860115 -6.105282 -21.048043 10.312308 -6.539708 24.183570 5.317957 -3.009198 12.362733 0.000000 0.000000 0.000000 34.130237 -38.362042 -58.078540 68.423138 -58.165564 41.428961 48.701503 64.858708 -19.582985 0.000000 0.000000 0.000000 -7.125000 0.000000 0.000000 23.270722 56.748898 -6.960814 0.000000 0.000000 0.000000 -21.284159 -24.359277 18.170949 -79.662402 -59.592118 -51.059655 -56.502081 11.446710 -21.039183 0.000000 0.000000 0.000000 7.125000 0.000000 0.000000 -16.513067 -3.644596 -18.286680
0.996605 18.191149 1.445397 -2.242237 6.147090 -3.015819 0.000000 0.000000 0.000000 -17.176487 0.321010 -1.397351 1.325678 7.291592 20.582126 0.194051 -9.418074 -9.607688 0.089902 -1.934222 -5.324011 0.000000 0.000000 0.000000 19.851674 -0.254479 -0.849620 -1.477554 -7.680411 21.747582 -0.389860 -5.967652 -15.488580 -0.590089 4.917663 -13.673934 -3.032337 -0.312071 6.148693 3.283374 -0.493633 -2.192920 5.206402 -0.068506 -5.692871 -16.261935 -6.512936 -20.328738 11.771668 -7.224978 24.537340 6.044434 -3.295090 12.597270 0.000000 0.000000 0.000000 46.397171 -54.779825 -33.165723 62.737769 -56.996169 36.628327 58.970057 71.555266 -21.058424 0.000000 0.000000 0.000000 -7.125000 0.000000 0.000000 40.560929 62.009280 -18.401003 0.000000 0.000000 0.000000 -20.762434 -22.809229 17.800943 -81.263939 -59.709636 -52.441718 -57.032209 10.309846 -21.400057 0.000000 0.000000 0.000000 7.125000 0.000000 0.000000 -16.697777 -4.470956 -18.737638
1.022974 18.199832 1.481096 -2.150723 3.942959 -2.615321 0.000000 0.000000 0.000000 -17.325608 1.069929 -1.241925 1.249595 7.087286 19.974224 0.250718 -8.333958 -9.944039 0.093138 -1.967331 -5.415497 0.000000 0.000000 0.000000 19.656564 0.780178 -0.999787 -1.469461 -7.660402 21.687138 -0.422015 -4.868284 -15.029794 -0.582008 4.884963 -13.580670 -1.998468 0.662145 6.297277 3.032634 0.898210 -3.043635 4.204247 0.610134 -6.810892 -17.666533 -6.691021 -18.096017 12.024887 -7.499492 24.524871 6.349928 -3.588952 12.271441 0.000000 0.000000 0.000000 47.309870 -54.605725 -0.144990 64.932616 -57.485234 38.474519 52.146786 62.882005 -24.526484 0.000000 0.000000 0.000000 -7.125000 0.000000 0.000000 31.067151 63.979003 -14.998289 0.000000 0.000000 0.000000 -19.015403 -22.581673 18.142244 -81.269924 -59.710035 -52.446889 -59.520894 9.257142 -20.451867 0.000000 0.000000 0.000000 7.125000 0.000000 0.000000 -18.310672 -4.753897 -20.819711
1.089958 18.186760 1.520340 -1.838323 2.432125 -2.687904 0.000000 0.000000 0.000000 -18.108832 2.917617 -1.662811 1.289809 7.196091 20.297523 0.422995 -6.627718 -11.779256 0.474267 -4.415752 -12.249534 0.000000 0.000000 0.000000 19.128734 2.085899 -0.746835 -1.554087 -7.868068 22.313971 -0.466273 -4.253257 -15.163302 -0.636966 5.106378 -14.212156 -0.454490 1.344221 5.826402 3.006429 1.920229 -2.117371 3.184048 1.025076 -5.594654 -16.823370 -6.766200 -19.105603 11.722864 -7.587271 24.332299 6.050790 -3.546944 12.358924 0.000000 0.000000 0.000000 33.303797 -33.812368 5.540104 81.966870 -59.754334 53.048877 54.656416 66.156621 -27.459079 0.000000 0.000000 0.000000 -7.125000 0.000000 0.000000 38.555782 68.207537 -22.744832 0.000000 0.000000 0.000000 -19.168093 -22.926868 17.647814 -82.925521 -59.809957 -53.877247 -58.589488 10.470672 -20.259557 0.000000 0.000000 0.000000 7.125000 0.000000 0.000000 -17.865011 -3.858777 -19.998977
